<svg width="123" height="40" viewBox="0 0 123 40" fill="none" xmlns="http://www.w3.org/2000/svg">
<path d="M122.573 34.5948C122.573 37.581 120.154 40 117.168 40H5.69098C2.7071 40.0023 0.285767 37.581 0.285767 34.5948V5.40522C0.285767 2.42133 2.7071 0 5.69098 0H117.168C120.152 0 122.573 2.42133 122.573 5.40522V34.5948Z" fill="black"/>
<path d="M32.1757 26.4405C31.5288 27.875 31.2194 28.5149 30.3849 29.783C29.2223 31.5527 27.5815 33.7584 25.5517 33.7771C23.7468 33.7936 23.2827 32.6028 20.8332 32.6169C18.3838 32.6309 17.8728 33.7982 16.0679 33.7818C14.038 33.7631 12.484 31.773 11.3214 30.001C8.06792 25.0505 7.73039 19.2398 9.73449 16.1528C11.1596 13.9588 13.4075 12.6743 15.5218 12.6743C17.6735 12.6743 19.0284 13.8557 20.8074 13.8557C22.535 13.8557 23.5874 12.6743 26.0744 12.6743C27.9566 12.6743 29.949 13.6986 31.3694 15.4707C26.7166 18.0186 27.4737 24.6638 32.1757 26.4405Z" fill="white"/>
<path d="M24.1871 10.6939C25.0918 9.53362 25.7786 7.89284 25.5278 6.21924C24.0511 6.32003 22.3236 7.25996 21.3133 8.48586C20.3969 9.59925 19.6421 11.2471 19.9351 12.8504C21.5501 12.9019 23.219 11.9385 24.1871 10.6939Z" fill="white"/>
<path d="M42.0823 16.0776L37.4225 29.7899H39.5555L40.9455 25.5801H45.4553L46.8851 29.7899H49.0767L44.3982 16.0776H42.0823ZM43.1863 18.3325C43.3434 18.9443 43.5145 19.5795 43.7325 20.2663L44.9888 23.9018H41.4166L42.6542 20.2429C42.8418 19.6499 43.0199 19.01 43.1863 18.3325Z" fill="white"/>
<path d="M55.1076 19.6338C53.6942 19.6338 52.5621 20.1799 51.8096 21.216L51.7276 19.8518H49.829L49.8407 20.0252C49.897 20.8761 49.9204 21.8113 49.9204 23.1521V33.7211H51.9948V28.7894C52.6394 29.5605 53.6661 30.0082 54.831 30.0082C56.0429 30.0082 57.1609 29.5324 57.9743 28.6722C58.8838 27.7111 59.3619 26.3305 59.3619 24.6804C59.3619 23.2224 58.9447 21.9614 58.1571 21.0355C57.386 20.1331 56.303 19.6338 55.1076 19.6338ZM54.5919 21.3519C56.4413 21.3519 57.2688 23.0654 57.2688 24.7624C57.2688 26.9517 56.2116 28.3135 54.5123 28.3135C53.352 28.3135 52.3488 27.5236 52.0675 26.3891C52.0183 26.2133 51.9948 25.9813 51.9948 25.7164V24.0475C51.9948 23.8975 52.0276 23.7123 52.0604 23.5365C52.0698 23.4803 52.0815 23.424 52.0909 23.3677C52.4003 22.1794 53.427 21.3519 54.5919 21.3519Z" fill="white"/>
<path d="M65.7917 19.6338C64.3783 19.6338 63.2461 20.1799 62.4937 21.216L62.4117 19.8518H60.5154L60.5248 20.0252C60.581 20.8761 60.6045 21.8113 60.6045 23.1521V33.7211H62.6789V28.7894C63.3235 29.5605 64.3501 30.0082 65.5151 30.0082C66.7269 30.0082 67.845 29.5324 68.6607 28.6722C69.5678 27.7111 70.0484 26.3305 70.0484 24.6804C70.0484 23.2224 69.6311 21.9614 68.8412 21.0355C68.07 20.1331 66.9871 19.6338 65.7917 19.6338ZM65.276 21.3519C67.1254 21.3519 67.9528 23.0654 67.9528 24.7624C67.9528 26.9517 66.8957 28.3135 65.1963 28.3135C64.036 28.3135 63.0305 27.5236 62.7515 26.3891C62.7023 26.2133 62.6789 25.9813 62.6789 25.7164V24.0475C62.6789 23.8951 62.7117 23.7123 62.7445 23.5342C62.7539 23.4779 62.7656 23.4217 62.775 23.3677C63.0844 22.1794 64.111 21.3519 65.276 21.3519Z" fill="white"/>
<path d="M79.1777 21.8886C77.2415 21.1385 76.6204 20.5502 76.6204 19.4602C76.6204 18.5437 77.3494 17.6178 78.9784 17.6178C80.3215 17.6178 81.1818 18.0843 81.4138 18.2296L81.5896 18.3374L82.1756 16.6052L82.0608 16.5373C81.7138 16.3333 80.7223 15.8599 79.0394 15.8599C76.393 15.8599 74.546 17.421 74.546 19.6571C74.546 21.4596 75.7039 22.7207 78.1885 23.6231C79.9488 24.2818 80.6051 24.9545 80.6051 26.1101C80.6051 27.418 79.5949 28.229 77.9682 28.229C76.9087 28.229 75.8187 27.9196 74.9772 27.3805L74.7968 27.2657L74.2389 29.0377L74.342 29.1057C75.1249 29.6284 76.5993 30.0081 77.8486 30.0081C81.4138 30.0081 82.6796 27.8329 82.6796 25.9718C82.6772 24.0544 81.6623 22.8707 79.1777 21.8886Z" fill="white"/>
<path d="M86.4123 17.4897L84.3777 18.1297V19.8525H82.887V21.5097H84.3777V26.5891C84.3777 27.8173 84.6121 28.6776 85.095 29.2214C85.5591 29.73 86.2717 30.0089 87.1014 30.0089C87.8867 30.0089 88.4422 29.8542 88.7047 29.7605L88.8219 29.7183L88.7235 28.0564L88.5242 28.1173C88.2617 28.197 87.9921 28.2299 87.5585 28.2299C86.7545 28.2299 86.4123 27.7212 86.4123 26.5281V21.512H88.9157V19.8548H86.4123V17.4897Z" fill="white"/>
<path d="M94.0552 19.6338C91.1534 19.6338 89.1259 21.7996 89.1259 24.9007C89.1259 27.908 91.0878 30.0106 93.8982 30.0106H93.9169C96.2914 30.0106 98.8463 28.3557 98.8463 24.7226C98.8463 23.2459 98.3893 21.9778 97.5243 21.0519C96.6547 20.126 95.4546 19.6338 94.0552 19.6338ZM93.9966 21.2722C95.8625 21.2722 96.7133 23.0912 96.7133 24.7835C96.7133 26.8626 95.553 28.3721 93.9568 28.3721H93.9357C92.3629 28.3721 91.219 26.8884 91.219 24.8421C91.2214 23.0654 92.0793 21.2722 93.9966 21.2722Z" fill="white"/>
<path d="M105.201 19.7299L105.076 19.6994C104.894 19.6549 104.744 19.6338 104.561 19.6338C103.475 19.6338 102.5 20.2737 101.959 21.305L101.898 19.8541H100.037L100.049 20.0276C100.105 20.848 100.126 21.7715 100.126 23.0162L100.107 29.7949H102.182V24.5069C102.182 24.2186 102.2 23.9467 102.238 23.7029C102.472 22.4325 103.328 21.6121 104.42 21.6121C104.633 21.6121 104.8 21.6285 104.978 21.6473L105.201 21.6707V19.7299Z" fill="white"/>
<path d="M109.867 19.6147C107.105 19.6147 105.176 21.8204 105.176 24.9825C105.176 28.0249 107.096 29.9915 110.066 29.9915C111.627 29.9915 112.715 29.6493 113.35 29.361L113.474 29.3048L113.076 27.7577L112.902 27.828C112.337 28.0578 111.585 28.2922 110.303 28.2922C109.4 28.2922 107.323 27.9945 107.195 25.2848L113.891 25.3059L113.919 25.1723C113.962 24.9614 113.983 24.6777 113.983 24.3074C113.983 22.1416 112.904 19.6147 109.867 19.6147ZM109.728 21.1922C110.361 21.1922 110.872 21.3868 111.252 21.7736C111.85 22.3806 111.953 23.276 111.967 23.705H107.234C107.429 22.5072 108.177 21.1922 109.728 21.1922Z" fill="white"/>
<path d="M37.4232 6.71076C38.0022 6.6334 38.6749 6.57715 39.4133 6.57715C40.7517 6.57715 41.7033 6.84671 42.3339 7.37644C42.9855 7.90618 43.3605 8.66563 43.3605 9.71574C43.3605 10.7752 42.9855 11.6401 42.3222 12.2379C41.6377 12.8449 40.5243 13.1731 39.1226 13.1731C38.4476 13.1731 37.9038 13.1544 37.4209 13.0958V6.71076H37.4232ZM38.3655 12.4605C38.5999 12.498 38.9421 12.498 39.3078 12.498C41.2978 12.5074 42.3784 11.4972 42.3784 9.74386C42.3901 8.19449 41.4268 7.24049 39.4578 7.24049C38.9773 7.24049 38.6116 7.28034 38.3655 7.32722V12.4605Z" fill="white"/>
<path d="M46.6972 13.2208C45.3049 13.2208 44.215 12.2973 44.215 10.8229C44.215 9.26181 45.3588 8.34766 46.7816 8.34766C48.27 8.34766 49.2756 9.32041 49.2756 10.7362C49.2756 12.4684 47.9372 13.2208 46.709 13.2208H46.6972ZM46.7301 12.5856C47.6278 12.5856 48.3029 11.8238 48.3029 10.7666C48.3029 9.97672 47.8645 8.98522 46.7512 8.98522C45.6495 8.98522 45.1666 9.90875 45.1666 10.7948C45.1666 11.8144 45.8089 12.5856 46.7183 12.5856H46.7301Z" fill="white"/>
<path d="M50.7675 8.45557L51.4637 10.816C51.602 11.3363 51.7426 11.8262 51.8387 12.3091H51.8716C51.9888 11.8379 52.1599 11.3363 52.331 10.8253L53.1772 8.45557H53.9694L54.7711 10.7855C54.9633 11.334 55.1133 11.8356 55.2305 12.3067H55.2633C55.35 11.8356 55.4883 11.3433 55.6594 10.7949L56.3978 8.45557H57.3284L55.6594 13.1154H54.8039L54.0116 10.891C53.8288 10.3612 53.6788 9.89946 53.5522 9.35097H53.5311C53.4022 9.90883 53.2428 10.4011 53.06 10.9003L52.2255 13.1154H51.37L49.8065 8.45557H50.7675Z" fill="white"/>
<path d="M58.268 9.71615C58.268 9.22391 58.2563 8.8395 58.2258 8.45509H59.0603L59.1142 9.21688H59.1353C59.3931 8.78325 59.9908 8.34961 60.8464 8.34961C61.5637 8.34961 62.677 8.73402 62.677 10.3326V13.1149H61.7371V10.4287C61.7371 9.67865 61.4254 9.04343 60.5393 9.04343C59.9299 9.04343 59.447 9.43722 59.2759 9.9107C59.2337 10.0162 59.2126 10.1709 59.2126 10.3045V13.1173H58.2704V9.71615H58.268Z" fill="white"/>
<path d="M64.2052 6.27783H65.1475V13.1152H64.2052V6.27783Z" fill="white"/>
<path d="M68.8192 13.2208C67.4292 13.2208 66.3369 12.2973 66.3369 10.8229C66.3369 9.26181 67.4808 8.34766 68.9059 8.34766C70.392 8.34766 71.3976 9.32041 71.3976 10.7362C71.3976 12.4684 70.0592 13.2208 68.8286 13.2208H68.8192ZM68.852 12.5856C69.7497 12.5856 70.4248 11.8238 70.4248 10.7666C70.4248 9.97672 69.9865 8.98522 68.8731 8.98522C67.7714 8.98522 67.2886 9.90875 67.2886 10.7948C67.2886 11.8144 67.9308 12.5856 68.8403 12.5856H68.852Z" fill="white"/>
<path d="M76.2357 11.9968C76.2357 12.4 76.2568 12.7961 76.3107 13.1126H75.4645L75.3778 12.5266H75.3473C75.0684 12.8922 74.5011 13.2204 73.7628 13.2204C72.715 13.2204 72.1782 12.5571 72.1782 11.882C72.1782 10.7545 73.2916 10.1381 75.291 10.1498V10.0537C75.291 9.66927 75.1738 8.96608 74.1144 8.97545C73.6221 8.97545 73.1182 9.09968 72.7548 9.32236L72.5415 8.75512C72.9705 8.51369 73.601 8.34961 74.2526 8.34961C75.8466 8.34961 76.231 9.32236 76.231 10.2553V11.9968H76.2357ZM75.3145 10.7358C74.2878 10.717 73.1205 10.8811 73.1205 11.7859C73.1205 12.3437 73.526 12.5946 73.9972 12.5946C74.6816 12.5946 75.1199 12.2101 75.2699 11.814C75.3027 11.7273 75.3121 11.6312 75.3121 11.5445V10.7358H75.3145Z" fill="white"/>
<path d="M82.2149 6.27783V11.9104C82.2149 12.3253 82.2266 12.7964 82.257 13.1152H81.4109L81.3687 12.3065H81.3476C81.0593 12.8269 80.4381 13.2207 79.592 13.2207C78.3403 13.2207 77.3652 12.2667 77.3652 10.8509C77.3535 9.28985 78.4364 8.34757 79.6881 8.34757C80.492 8.34757 81.0265 8.6851 81.2515 9.05076H81.2726V6.27783H82.2149ZM81.2749 10.3517C81.2749 10.2368 81.2656 10.1009 81.2327 9.98601C81.0944 9.45627 80.5811 9.01326 79.8732 9.01326C78.9005 9.01326 78.3215 9.78443 78.3215 10.8041C78.3215 11.7581 78.8466 12.5363 79.8521 12.5363C80.4827 12.5363 81.0616 12.1518 81.2327 11.526C81.2656 11.4111 81.2749 11.2939 81.2749 11.1603V10.3517Z" fill="white"/>
<path d="M88.1538 13.2208C86.7638 13.2208 85.6715 12.2973 85.6715 10.8229C85.6715 9.26181 86.8177 8.34766 88.2405 8.34766C89.7289 8.34766 90.7345 9.32041 90.7345 10.7362C90.7345 12.4684 89.3961 13.2208 88.1678 13.2208H88.1538ZM88.1866 12.5856C89.0843 12.5856 89.7594 11.8238 89.7594 10.7666C89.7594 9.97672 89.3211 8.98522 88.2077 8.98522C87.106 8.98522 86.6232 9.90875 86.6232 10.7948C86.6232 11.8144 87.2654 12.5856 88.1749 12.5856H88.1866Z" fill="white"/>
<path d="M91.9204 9.71615C91.9204 9.22391 91.9086 8.8395 91.8782 8.45509H92.7126L92.7665 9.21688H92.7876C93.0455 8.78325 93.6432 8.34961 94.4988 8.34961C95.216 8.34961 96.3294 8.73402 96.3294 10.3326V13.1149H95.3871V10.4287C95.3871 9.67865 95.0777 9.04343 94.1894 9.04343C93.5799 9.04343 93.0971 9.43722 92.9259 9.9107C92.8837 10.0162 92.8626 10.1709 92.8626 10.3045V13.1173H91.9204V9.71615Z" fill="white"/>
<path d="M101.262 7.33691V8.45265H102.609V9.09724H101.262V11.61C101.262 12.1866 101.444 12.5148 101.967 12.5148C102.223 12.5148 102.373 12.496 102.513 12.4562L102.555 13.1008C102.373 13.1594 102.084 13.2156 101.721 13.2156C101.283 13.2156 100.929 13.0797 100.704 12.8593C100.446 12.5991 100.34 12.1843 100.34 11.6358V9.09959H99.5387V8.45499H100.34V7.5971L101.262 7.33691Z" fill="white"/>
<path d="M103.668 6.27783H104.61V9.18671H104.631C104.781 8.94528 105.015 8.72494 105.306 8.58899C105.585 8.43429 105.916 8.34756 106.269 8.34756C106.963 8.34756 108.077 8.73198 108.077 10.3399V13.1129H107.134V10.4384C107.134 9.6766 106.825 9.05076 105.937 9.05076C105.327 9.05076 104.856 9.43517 104.673 9.89928C104.619 10.0141 104.608 10.1407 104.608 10.3048V13.1176H103.665V6.27783H103.668Z" fill="white"/>
<path d="M110.142 10.9285C110.163 12.0747 110.967 12.5458 111.907 12.5458C112.582 12.5458 112.999 12.4403 113.342 12.3138L113.513 12.9115C113.18 13.0474 112.603 13.2092 111.778 13.2092C110.194 13.2092 109.23 12.2552 109.23 10.8605C109.23 9.44474 110.161 8.33838 111.67 8.33838C113.36 8.33838 113.799 9.67679 113.799 10.5347C113.799 10.7081 113.789 10.8417 113.768 10.9378L110.142 10.9285ZM112.894 10.3237C112.903 9.79399 112.648 8.94547 111.598 8.94547C110.634 8.94547 110.229 9.73539 110.154 10.3237H112.894Z" fill="white"/>
</svg>
