<svg width="123" height="40" viewBox="0 0 123 40" fill="none" xmlns="http://www.w3.org/2000/svg">
<g clip-path="url(#clip0)">
<path d="M122.283 34.5945C122.283 37.5805 119.864 40 116.878 40H5.40554C2.41946 40 0 37.5805 0 34.5945V5.40553C0 2.42185 2.41946 0 5.40554 0H116.878C119.861 0 122.283 2.42185 122.283 5.40553V34.5945Z" fill="black"/>
<path d="M9.17126 7.70081V21.2445V34.7883L22.8321 21.2445L9.17126 7.70081Z" fill="url(#paint0_linear)"/>
<path d="M26.4996 17.608L20.9865 14.4235L9.17126 7.60266V7.70068L22.8321 21.2444L26.4996 17.608Z" fill="url(#paint1_linear)"/>
<path d="M9.17126 34.788V34.8884L20.9865 28.0651L26.4996 24.883L22.8321 21.2443L9.17126 34.788Z" fill="url(#paint2_linear)"/>
<path d="M26.4995 17.6079L22.832 21.2443L26.4995 24.883L32.8015 21.2443L26.4995 17.6079Z" fill="url(#paint3_linear)"/>
<path d="M95.167 26.5402C94.6529 26.5402 94.1867 26.4446 93.7612 26.2557C93.338 26.0668 92.9818 25.7752 92.6925 25.3831H92.6064C92.6638 25.8421 92.6925 26.2796 92.6925 26.6908V29.9327H91.4995V18.5192H92.4702L92.6351 19.5974H92.6925C92.9985 19.1671 93.3571 18.8539 93.7636 18.6626C94.17 18.4714 94.6386 18.3757 95.1646 18.3757C96.2093 18.3757 97.015 18.732 97.584 19.4468C98.153 20.1616 98.4352 21.1634 98.4352 22.452C98.4352 23.7454 98.1459 24.7519 97.5697 25.4668C96.9935 26.1816 96.1926 26.5402 95.167 26.5402ZM94.9948 19.3894C94.1891 19.3894 93.6082 19.6118 93.2496 20.0588C92.8909 20.5035 92.7045 21.2136 92.6949 22.1866V22.452C92.6949 23.5589 92.879 24.3503 93.2496 24.8284C93.6177 25.3042 94.2106 25.5433 95.0235 25.5433C95.7049 25.5433 96.238 25.2683 96.6229 24.7161C97.0079 24.1662 97.2015 23.4059 97.2015 22.4377C97.2015 21.455 97.0079 20.702 96.6229 20.176C96.2356 19.65 95.6929 19.3894 94.9948 19.3894Z" fill="#F9F9F9"/>
<path d="M101.199 26.3967H100.006V15.2126H101.199V26.3967Z" fill="#F9F9F9"/>
<path d="M108.061 26.3966L107.824 25.2754H107.766C107.374 25.7703 106.982 26.1026 106.59 26.2771C106.201 26.4516 105.713 26.5401 105.127 26.5401C104.345 26.5401 103.733 26.3393 103.291 25.9352C102.849 25.5336 102.626 24.9598 102.626 24.2186C102.626 22.6288 103.898 21.7944 106.442 21.7179L107.778 21.6749V21.1871C107.778 20.5679 107.645 20.1113 107.379 19.8172C107.114 19.5232 106.688 19.3749 106.103 19.3749C105.445 19.3749 104.704 19.5758 103.874 19.9798L103.509 19.0665C103.898 18.8561 104.321 18.6912 104.785 18.5716C105.247 18.4521 105.71 18.3923 106.177 18.3923C107.116 18.3923 107.812 18.6003 108.264 19.0187C108.716 19.4347 108.943 20.1041 108.943 21.0246V26.4014H108.061V26.3966ZM105.364 25.5551C106.107 25.5551 106.688 25.3519 107.114 24.9454C107.537 24.539 107.75 23.9676 107.75 23.2336V22.5212L106.557 22.5714C105.608 22.6049 104.924 22.7531 104.505 23.0137C104.087 23.2743 103.877 23.6807 103.877 24.233C103.877 24.6633 104.006 24.9933 104.269 25.218C104.529 25.4427 104.895 25.5551 105.364 25.5551Z" fill="#F9F9F9"/>
<path d="M109.636 18.519H110.915L112.641 23.0113C113.019 24.0369 113.256 24.7781 113.346 25.2323H113.404C113.466 24.9885 113.597 24.5701 113.796 23.9772C113.994 23.3843 114.645 21.5673 115.747 18.519H117.026L113.641 27.4892C113.306 28.3762 112.914 29.005 112.464 29.3755C112.017 29.7461 111.467 29.9326 110.815 29.9326C110.451 29.9326 110.09 29.8919 109.736 29.8107V28.8543C109.999 28.9117 110.296 28.9404 110.621 28.9404C111.441 28.9404 112.024 28.4814 112.376 27.5609L112.813 26.4397L109.636 18.519Z" fill="#F9F9F9"/>
<path d="M73.0639 19.2505C73.4416 19.5637 74.233 20.2236 74.233 21.4763C74.233 22.6956 73.5421 23.2718 72.8487 23.8169C72.6336 24.0297 72.3873 24.2616 72.3873 24.625C72.3873 24.986 72.6336 25.1844 72.8153 25.3326L73.4082 25.7941C74.1326 26.4037 74.7924 26.9655 74.7924 28.1012C74.7924 29.6504 73.2934 31.2139 70.4604 31.2139C68.0696 31.2139 66.9172 30.0783 66.9172 28.8566C66.9172 28.2637 67.2137 27.4246 68.1867 26.846C69.2076 26.2196 70.5918 26.1383 71.333 26.0881C71.1011 25.7917 70.8381 25.4785 70.8381 24.9692C70.8381 24.6895 70.9218 24.5246 71.0031 24.3261C70.8214 24.3429 70.6397 24.3596 70.4747 24.3596C68.7294 24.3596 67.7397 23.0566 67.7397 21.7728C67.7397 21.0149 68.0863 20.1733 68.794 19.5637C69.7336 18.7891 70.8548 18.6576 71.7442 18.6576H75.1367L74.0824 19.2505H73.0639ZM71.8924 26.5663C71.7609 26.5495 71.6773 26.5495 71.5147 26.5495C71.3665 26.5495 70.4747 26.583 69.7838 26.8149C69.4204 26.9464 68.366 27.3409 68.366 28.5124C68.366 29.6815 69.504 30.523 71.266 30.523C72.8463 30.523 73.6879 29.7627 73.6879 28.7419C73.6903 27.9003 73.1452 27.458 71.8924 26.5663ZM72.3706 23.4368C72.7483 23.0566 72.7818 22.5306 72.7818 22.2342C72.7818 21.0484 72.0741 19.2027 70.7066 19.2027C70.2787 19.2027 69.8172 19.4155 69.5519 19.7478C69.2721 20.0944 69.1885 20.5391 69.1885 20.9671C69.1885 22.0716 69.8316 23.9006 71.2493 23.9006C71.6629 23.8982 72.1076 23.6997 72.3706 23.4368Z" fill="#F9F9F9"/>
<path d="M62.6904 26.3032C60.0749 26.3032 58.6763 24.2639 58.6763 22.4206C58.6763 20.2665 60.4359 18.4232 62.9366 18.4232C65.3537 18.4232 66.867 20.3143 66.867 22.3058C66.8694 24.2471 65.3728 26.3032 62.6904 26.3032ZM64.7464 24.9715C65.1409 24.4456 65.2413 23.7857 65.2413 23.145C65.2413 21.6962 64.5504 18.9325 62.5111 18.9325C61.9684 18.9325 61.4256 19.1476 61.0312 19.4919C60.3904 20.0681 60.2733 20.7901 60.2733 21.5001C60.2733 23.1283 61.079 25.8083 63.0705 25.8083C63.7112 25.8083 64.3687 25.4975 64.7464 24.9715Z" fill="#F9F9F9"/>
<path d="M53.7755 26.3032C51.16 26.3032 49.7614 24.2639 49.7614 22.4206C49.7614 20.2665 51.521 18.4232 54.0217 18.4232C56.4388 18.4232 57.9521 20.3143 57.9521 22.3058C57.9521 24.2471 56.4555 26.3032 53.7755 26.3032ZM55.8315 24.9715C56.226 24.4456 56.3264 23.7857 56.3264 23.145C56.3264 21.6962 55.6355 18.9325 53.5961 18.9325C53.0534 18.9325 52.5107 19.1476 52.1163 19.4919C51.4755 20.0681 51.3584 20.7901 51.3584 21.5001C51.3584 23.1283 52.1641 25.8083 54.1556 25.8083C54.7939 25.8083 55.4514 25.4975 55.8315 24.9715Z" fill="#F9F9F9"/>
<path d="M48.5038 26.0452L46.1393 26.5903C45.1806 26.7385 44.3199 26.87 43.4114 26.87C38.8451 26.87 37.1094 23.5134 37.1094 20.8835C37.1094 17.6751 39.5743 14.6986 43.7916 14.6986C44.6857 14.6986 45.544 14.8301 46.321 15.0453C47.5618 15.3919 48.1404 15.8223 48.5038 16.0709L47.1315 17.3763L46.5529 17.5078L46.9665 16.8455C46.4047 16.3004 45.3791 15.2915 43.4282 15.2915C40.8151 15.2915 38.8475 17.2759 38.8475 20.1711C38.8475 23.2791 41.0972 26.2078 44.7025 26.2078C45.7616 26.2078 46.3067 25.9926 46.804 25.7942V23.1356L44.308 23.2671L45.6301 22.5547H49.1373L48.707 22.9683C48.5899 23.0687 48.5755 23.1022 48.542 23.2337C48.5253 23.3819 48.5086 23.8624 48.5086 24.0274V26.0452H48.5038Z" fill="#F9F9F9"/>
<path d="M78.2902 25.5695C77.7451 25.5192 77.6304 25.4212 77.6304 24.7757V24.594V15.4135C77.6328 15.3776 77.6352 15.3417 77.64 15.3059C77.7069 14.7273 77.8719 14.6293 78.3859 14.3304H76.019L74.7782 14.9257H76.0429V14.9329V14.9257V24.5892V25.1367C76.0429 25.4667 75.9784 25.5169 75.5958 26.0117H78.5245L79.1366 25.6484C78.8545 25.6173 78.5724 25.6029 78.2902 25.5695Z" fill="#F9F9F9"/>
<path d="M85.0202 25.7202C84.8409 25.8182 84.6592 25.9354 84.4798 26.0166C83.9371 26.2629 83.3777 26.3298 82.8852 26.3298C82.3616 26.3298 81.5392 26.2964 80.7 25.6891C79.5357 24.8667 79.0265 23.4537 79.0265 22.2225C79.0265 19.6763 81.0969 18.4283 82.7872 18.4283C83.3777 18.4283 83.9873 18.5766 84.4798 18.8874C85.2999 19.4277 85.5151 20.1354 85.6274 20.5131L81.7687 22.0743L80.504 22.1723C80.9128 24.257 82.3258 25.4716 83.8869 25.4716C84.7237 25.4716 85.3334 25.1775 85.8904 24.8978L85.0202 25.7202ZM83.4781 20.8263C83.7889 20.7115 83.9539 20.6135 83.9539 20.384C83.9539 19.7265 83.2151 18.971 82.3281 18.971C81.6707 18.971 80.4394 19.4803 80.4394 21.2542C80.4394 21.534 80.4729 21.828 80.4897 22.1245L83.4781 20.8263Z" fill="#F9F9F9"/>
<path d="M86.6079 18.5407V19.6237H86.4764V18.5407H86.1178V18.4283H86.9665V18.5407H86.6079Z" fill="#F9F9F9"/>
<path d="M88.0856 19.6237V18.5288H88.0784L87.7437 19.6237H87.6409L87.3038 18.5288H87.299V19.6237H87.1794V18.4283H87.3851L87.6887 19.3942H87.6935L87.9923 18.4283H88.2003V19.6237H88.0856Z" fill="#F9F9F9"/>
<path d="M40.3922 11.4782H39.5698C39.5698 11.3659 39.4909 11.0455 39.3355 10.5171H38.1497C37.9895 11.0359 37.9082 11.3563 37.9082 11.4782H37.136C37.136 11.4113 37.3368 10.8638 37.7361 9.83338C38.1353 8.80535 38.3362 8.23874 38.3362 8.13354H39.3068C39.3068 8.23157 39.4885 8.78862 39.8495 9.80948C40.2129 10.8303 40.3922 11.3874 40.3922 11.4782ZM39.2064 10.0294C38.9147 9.14484 38.7665 8.66908 38.7665 8.59735H38.7258C38.7258 8.6643 38.5752 9.14245 38.2716 10.0294H39.2064Z" fill="#F9F9FA"/>
<path d="M43.7058 11.4782H43.0722C43.0722 11.4089 42.8379 11.0383 42.3669 10.3665C41.8744 9.65886 41.5923 9.17592 41.5254 8.91533H41.4847C41.5278 9.29068 41.5493 9.63017 41.5493 9.93141C41.5493 10.3546 41.5612 10.8686 41.5851 11.4782H40.954C40.9803 10.9475 40.9922 10.3641 40.9922 9.72819C40.9922 9.1042 40.9803 8.57106 40.954 8.13354H41.7166C41.7166 8.22439 41.927 8.5854 42.3502 9.21896C42.7997 9.89076 43.0579 10.3474 43.1248 10.5889H43.1631C43.1224 10.2063 43.1009 9.86446 43.1009 9.56084C43.1009 9.09703 43.0889 8.62126 43.065 8.13354H43.7082C43.6842 8.5591 43.6723 9.08985 43.6723 9.72819C43.6699 10.3737 43.6819 10.957 43.7058 11.4782Z" fill="#F9F9FA"/>
<path d="M47.4284 9.69232C47.4284 10.1776 47.273 10.6032 46.9598 10.9666C46.649 11.33 46.2115 11.5117 45.6497 11.5117C45.3963 11.5117 45.0472 11.5021 44.6025 11.4806C44.6241 10.9642 44.636 10.3809 44.636 9.73057C44.636 9.10658 44.6241 8.57583 44.6025 8.13593H45.052C45.1261 8.13593 45.2361 8.13354 45.3819 8.12875C45.5278 8.12397 45.6234 8.12158 45.6664 8.12158C46.2833 8.12158 46.7327 8.27459 47.0101 8.583C47.2874 8.89141 47.4284 9.25959 47.4284 9.69232ZM46.7256 9.80229C46.7256 9.47237 46.6299 9.19743 46.4387 8.97031C46.2474 8.74557 45.9533 8.63321 45.5612 8.63321C45.4871 8.63321 45.3867 8.64038 45.2576 8.65711C45.2743 8.99899 45.2839 9.35761 45.2839 9.73057C45.2839 10.1394 45.2935 10.5458 45.3102 10.9475C45.4226 10.969 45.5326 10.9809 45.6449 10.9809C46.0131 10.9809 46.2856 10.8662 46.4626 10.6391C46.6371 10.4095 46.7256 10.1322 46.7256 9.80229Z" fill="#F9F9FA"/>
<path d="M50.8591 11.4782H50.0988C49.9004 10.871 49.7474 10.498 49.6422 10.357C49.537 10.2159 49.3648 10.1442 49.1281 10.1442C49.0277 10.1442 48.9345 10.1442 48.8436 10.1466C48.8436 10.5865 48.8508 11.0311 48.8675 11.4806H48.1527C48.1742 10.9642 48.1862 10.3809 48.1862 9.73057C48.1862 9.10658 48.1742 8.57583 48.1527 8.13593H48.5974C48.6476 8.13593 48.7552 8.13354 48.9201 8.12875C49.0827 8.12397 49.2357 8.12158 49.3744 8.12158C50.161 8.12158 50.553 8.38935 50.553 8.92727C50.553 9.35283 50.3283 9.65167 49.8812 9.81903V9.85728C50.0534 9.9051 50.2064 10.039 50.3355 10.2613C50.4622 10.4813 50.6391 10.8877 50.8591 11.4782ZM49.8956 9.11614C49.8956 8.77665 49.6756 8.60452 49.2381 8.60452C49.0779 8.60452 48.9345 8.61647 48.8126 8.64038C48.8317 8.90575 48.8412 9.25242 48.8412 9.67797C48.9345 9.68036 49.0158 9.68275 49.0803 9.68275C49.623 9.68515 49.8956 9.49388 49.8956 9.11614Z" fill="#F9F9FA"/>
<path d="M54.5406 9.74494C54.5406 10.2709 54.3804 10.706 54.0577 11.0527C53.7349 11.3994 53.338 11.5715 52.8623 11.5715C52.4104 11.5715 52.0327 11.4137 51.7267 11.0957C51.423 10.7778 51.27 10.3737 51.27 9.886C51.27 9.36003 51.4302 8.92491 51.753 8.57825C52.0757 8.23158 52.4726 8.05945 52.9483 8.05945C53.4002 8.05945 53.7779 8.21724 54.084 8.53521C54.3876 8.85079 54.5406 9.25483 54.5406 9.74494ZM53.8329 9.82145C53.8329 9.46283 53.7421 9.17355 53.558 8.95121C53.3739 8.72886 53.1492 8.6165 52.879 8.6165C52.628 8.6165 52.4176 8.72886 52.2431 8.9536C52.0685 9.17833 51.9801 9.46044 51.9801 9.80471C51.9801 10.1609 52.0709 10.4502 52.255 10.675C52.4391 10.8973 52.6638 11.0097 52.9316 11.0097C53.1826 11.0097 53.393 10.8973 53.5676 10.6726C53.7445 10.443 53.8329 10.1609 53.8329 9.82145Z" fill="#F9F9FA"/>
<path d="M55.992 11.4782H55.2653C55.2868 10.9475 55.2987 10.3641 55.2987 9.72819C55.2987 9.1042 55.2868 8.57106 55.2653 8.13354H55.992C55.9705 8.56388 55.9586 9.09703 55.9586 9.72819C55.9586 10.3761 55.9705 10.9594 55.992 11.4782Z" fill="#F9F9FA"/>
<path d="M59.7141 9.69232C59.7141 10.1776 59.5587 10.6032 59.2455 10.9666C58.9347 11.33 58.4972 11.5117 57.9353 11.5117C57.6819 11.5117 57.3329 11.5021 56.8882 11.4806C56.9097 10.9642 56.9217 10.3809 56.9217 9.73057C56.9217 9.10658 56.9097 8.57583 56.8882 8.13593H57.3376C57.4118 8.13593 57.5217 8.13354 57.6676 8.12875C57.8134 8.12397 57.909 8.12158 57.9521 8.12158C58.5689 8.12158 59.0184 8.27459 59.2957 8.583C59.5754 8.89141 59.7141 9.25959 59.7141 9.69232ZM59.0136 9.80229C59.0136 9.47237 58.9179 9.19743 58.7267 8.97031C58.5354 8.74557 58.2414 8.63321 57.8493 8.63321C57.7752 8.63321 57.6747 8.64038 57.5456 8.65711C57.5624 8.99899 57.5719 9.35761 57.5719 9.73057C57.5719 10.1394 57.5815 10.5458 57.5982 10.9475C57.7106 10.969 57.8206 10.9809 57.933 10.9809C58.3011 10.9809 58.5737 10.8662 58.7506 10.6391C58.9251 10.4095 59.0136 10.1322 59.0136 9.80229Z" fill="#F9F9FA"/>
<path d="M64.6538 11.4782H63.8314C63.8314 11.3659 63.7525 11.0455 63.5971 10.5171H62.4113C62.2511 11.0359 62.1698 11.3563 62.1698 11.4782H61.3976C61.3976 11.4113 61.5984 10.8638 61.9977 9.83338C62.3969 8.80535 62.5977 8.23874 62.5977 8.13354H63.5684C63.5684 8.23157 63.7501 8.78862 64.1111 9.80948C64.4721 10.8303 64.6538 11.3874 64.6538 11.4782ZM63.468 10.0294C63.1763 9.14484 63.0281 8.66908 63.0281 8.59735H62.9874C62.9874 8.6643 62.8368 9.14245 62.5332 10.0294H63.468Z" fill="#F9F9FA"/>
<path d="M67.6492 9.0109C67.6492 9.41972 67.4962 9.72335 67.1926 9.917C66.889 10.113 66.516 10.2087 66.0737 10.2087C65.9924 10.2087 65.935 10.2063 65.9016 10.2039C65.9016 10.5266 65.9111 10.9498 65.9303 11.4782H65.2083C65.2298 10.9833 65.2417 10.3999 65.2417 9.72813C65.2417 9.11131 65.2298 8.58056 65.2083 8.13349H65.6553C65.7175 8.13349 65.8394 8.1311 66.0211 8.12631C66.2004 8.12153 66.3558 8.11914 66.4897 8.11914C66.8148 8.11914 67.0898 8.19326 67.3145 8.33909C67.5369 8.48732 67.6492 8.71205 67.6492 9.0109ZM66.987 9.15195C66.987 8.78617 66.7431 8.60208 66.2578 8.60208C66.1359 8.60208 66.0068 8.61403 65.8729 8.64033C65.892 8.96308 65.9016 9.33126 65.9016 9.74008C65.9446 9.74248 65.9948 9.74487 66.0498 9.74487C66.6738 9.74487 66.987 9.54882 66.987 9.15195Z" fill="#F9F9FA"/>
<path d="M70.729 9.0109C70.729 9.41972 70.576 9.72335 70.2724 9.917C69.9688 10.113 69.5958 10.2087 69.1535 10.2087C69.0723 10.2087 69.0149 10.2063 68.9814 10.2039C68.9814 10.5266 68.991 10.9498 69.0101 11.4782H68.2881C68.3096 10.9833 68.3216 10.3999 68.3216 9.72813C68.3216 9.11131 68.3096 8.58056 68.2881 8.13349H68.7352C68.7973 8.13349 68.9192 8.1311 69.1009 8.12631C69.2802 8.12153 69.4356 8.11914 69.5695 8.11914C69.8947 8.11914 70.1696 8.19326 70.3943 8.33909C70.6191 8.48732 70.729 8.71205 70.729 9.0109ZM70.0668 9.15195C70.0668 8.78617 69.823 8.60208 69.3376 8.60208C69.2157 8.60208 69.0866 8.61403 68.9527 8.64033C68.9718 8.96308 68.9814 9.33126 68.9814 9.74008C69.0244 9.74248 69.0746 9.74487 69.1296 9.74487C69.756 9.74487 70.0668 9.54882 70.0668 9.15195Z" fill="#F9F9FA"/>
<path d="M75.7663 9.74494C75.7663 10.2709 75.6061 10.706 75.2834 11.0527C74.9606 11.3994 74.5637 11.5715 74.088 11.5715C73.6361 11.5715 73.2584 11.4137 72.9524 11.0957C72.6487 10.7778 72.4957 10.3737 72.4957 9.886C72.4957 9.36003 72.6559 8.92491 72.9787 8.57825C73.3014 8.23158 73.6983 8.05945 74.174 8.05945C74.6259 8.05945 75.0036 8.21724 75.3097 8.53521C75.6133 8.85079 75.7663 9.25483 75.7663 9.74494ZM75.0562 9.82145C75.0562 9.46283 74.9654 9.17355 74.7813 8.95121C74.5972 8.72886 74.3725 8.6165 74.1023 8.6165C73.8513 8.6165 73.6409 8.72886 73.4664 8.9536C73.2919 9.17833 73.2034 9.46044 73.2034 9.80471C73.2034 10.1609 73.2942 10.4502 73.4807 10.675C73.6648 10.8973 73.8895 11.0097 74.1573 11.0097C74.4083 11.0097 74.6187 10.8973 74.7933 10.6726C74.9702 10.443 75.0562 10.1609 75.0562 9.82145Z" fill="#F9F9FA"/>
<path d="M79.2473 11.4782H78.6137C78.6137 11.4089 78.3794 11.0383 77.9084 10.3665C77.4159 9.65886 77.1338 9.17592 77.0669 8.91533H77.0262C77.0693 9.29068 77.0908 9.63017 77.0908 9.93141C77.0908 10.3546 77.1027 10.8686 77.1267 11.4782H76.4955C76.5218 10.9475 76.5337 10.3641 76.5337 9.72819C76.5337 9.1042 76.5218 8.57106 76.4955 8.13354H77.2581C77.2581 8.22439 77.4685 8.5854 77.8917 9.21896C78.3412 9.89076 78.5994 10.3474 78.6663 10.5889H78.7046C78.6639 10.2063 78.6424 9.86446 78.6424 9.56084C78.6424 9.09703 78.6305 8.62126 78.6066 8.13354H79.2497C79.2258 8.5591 79.2138 9.08985 79.2138 9.72819C79.2114 10.3737 79.2234 10.957 79.2473 11.4782Z" fill="#F9F9FA"/>
</g>
<defs>
<linearGradient id="paint0_linear" x1="16.0021" y1="7.70104" x2="16.0021" y2="34.7891" gradientUnits="userSpaceOnUse">
<stop stop-color="#257CB0"/>
<stop offset="0.2863" stop-color="#4A93B5"/>
<stop offset="0.767" stop-color="#78BCBB"/>
<stop offset="1" stop-color="#89CFBD"/>
</linearGradient>
<linearGradient id="paint1_linear" x1="9.17241" y1="14.4238" x2="26.5006" y2="14.4238" gradientUnits="userSpaceOnUse">
<stop stop-color="#52C1AD"/>
<stop offset="1" stop-color="#DEE89A"/>
</linearGradient>
<linearGradient id="paint2_linear" x1="17.8364" y1="21.2451" x2="17.8364" y2="34.8874" gradientUnits="userSpaceOnUse">
<stop stop-color="#EC413D"/>
<stop offset="0.1668" stop-color="#DA4452"/>
<stop offset="0.5748" stop-color="#B0487A"/>
<stop offset="0.8619" stop-color="#954A92"/>
<stop offset="1" stop-color="#8A4A9D"/>
</linearGradient>
<linearGradient id="paint3_linear" x1="27.8166" y1="17.6071" x2="27.8166" y2="24.8826" gradientUnits="userSpaceOnUse">
<stop stop-color="#F58879"/>
<stop offset="0.1194" stop-color="#F69079"/>
<stop offset="0.7128" stop-color="#FCB877"/>
<stop offset="1" stop-color="#FEC874"/>
</linearGradient>
<clipPath id="clip0">
<rect width="122.283" height="40" fill="white"/>
</clipPath>
</defs>
</svg>
